<svg width="11" height="12" viewBox="0 0 11 12" fill="none" xmlns="http://www.w3.org/2000/svg">
<path d="M4 5V9C4 9.13261 4.05268 9.25979 4.14645 9.35355C4.24021 9.44732 4.36739 9.5 4.5 9.5C4.63261 9.5 4.75979 9.44732 4.85355 9.35355C4.94732 9.25979 5 9.13261 5 9V5C5 4.86739 4.94732 4.74021 4.85355 4.64645C4.75979 4.55268 4.63261 4.5 4.5 4.5C4.36739 4.5 4.24021 4.55268 4.14645 4.64645C4.05268 4.74021 4 4.86739 4 5Z" fill="white"/>
<path d="M6.5 4.5C6.63261 4.5 6.75979 4.55268 6.85355 4.64645C6.94732 4.74021 7 4.86739 7 5V9C7 9.13261 6.94732 9.25979 6.85355 9.35355C6.75979 9.44732 6.63261 9.5 6.5 9.5C6.36739 9.5 6.24021 9.44732 6.14645 9.35355C6.05268 9.25979 6 9.13261 6 9V5C6 4.86739 6.05268 4.74021 6.14645 4.64645C6.24021 4.55268 6.36739 4.5 6.5 4.5Z" fill="white"/>
<path d="M7.5 2H10.5C10.6326 2 10.7598 2.05268 10.8536 2.14645C10.9473 2.24021 11 2.36739 11 2.5C11 2.63261 10.9473 2.75979 10.8536 2.85355C10.7598 2.94732 10.6326 3 10.5 3H9.947L9.195 9.776C9.12707 10.3875 8.836 10.9525 8.37751 11.3629C7.91902 11.7732 7.3253 12.0001 6.71 12H4.29C3.6747 12.0001 3.08098 11.7732 2.62249 11.3629C2.164 10.9525 1.87293 10.3875 1.805 9.776L1.052 3H0.5C0.367392 3 0.240215 2.94732 0.146447 2.85355C0.0526785 2.75979 0 2.63261 0 2.5C0 2.36739 0.0526785 2.24021 0.146447 2.14645C0.240215 2.05268 0.367392 2 0.5 2H3.5C3.5 1.46957 3.71071 0.960859 4.08579 0.585786C4.46086 0.210714 4.96957 0 5.5 0C6.03043 0 6.53914 0.210714 6.91421 0.585786C7.28929 0.960859 7.5 1.46957 7.5 2ZM5.5 1C5.23478 1 4.98043 1.10536 4.79289 1.29289C4.60536 1.48043 4.5 1.73478 4.5 2H6.5C6.5 1.73478 6.39464 1.48043 6.20711 1.29289C6.01957 1.10536 5.76522 1 5.5 1ZM2.059 3L2.799 9.666C2.83985 10.0329 3.01453 10.3718 3.28962 10.6179C3.5647 10.864 3.92088 11.0001 4.29 11H6.71C7.07895 10.9998 7.43488 10.8636 7.70976 10.6175C7.98463 10.3715 8.15917 10.0327 8.2 9.666L8.942 3H2.06H2.059Z" fill="white"/>
</svg>
