<svg xmlns="http://www.w3.org/2000/svg" width="370" height="115"><g fill-rule="evenodd" clip-rule="evenodd"><path fill="#004674" d="M93.718 50.351c-.015-.009 8.476 23.902-38.73 44.932 12.516-6.104 37.555-33.196 26.356-36.719 24.719-33.661-11.895-35.104-17.016-34.759 4.076.387 7.484 1.113 10.282 2.131 12.526 3.867 12.644 13.303 7.573 23.459-5.641 11.3-18.151 24.107-27.293 30.67a427.622 427.622 0 01-6.361 4.474l-.025.004C34.523 93.619 16.92 104.172 1.693 109.82c7.572-.739 19.545-5.025 30.375-9.912 6.048 5.618 14.866 9.374 24.38 9.29 18.466-.183 33.532-14.41 35.142-32.459 1.761-2.441 3.5-5.219 4.698-8.005 3.428-8.024 1.558-15.812-2.57-18.383z"/><g fill="#EC6602"><circle cx="84.78" cy="12.244" r="8.245"/><path d="M63.642 35.883c-8.646-11.928-37.909-7.151-51.123 1.851 6.777-3.661 24.242-7.551 37.133-2.8 2.391.885 4.339 2.108 5.937 3.521-1.873-.396-4.46-.327-9.149.757C33.776 42.761 24.066 53.101 21.222 66c-4.413 20.01 20.33.366 26.391-7.16-3.73 9.748-22.782 28.7-34.902 28.876 2.054 1.472 5.231 1.874 10.944.617a35.7 35.7 0 003.437 5.934c16.304-9.812 32.778-28.855 37.28-39.976 1.291-3.191 3.696-12.3-.73-18.408z"/></g></g><path fill-rule="evenodd" clip-rule="evenodd" fill="#EC6602" d="M310.153 70.418H106.496v23.77h259.557v-23.77h-55.9zm-155.497 17.99h-3.778v-12.21h3.778v12.21zm16.81-2.099c0 .401-.058.749-.173 1.04a2.103 2.103 0 01-.457.722c-.188.188-.41.326-.666.41a2.44 2.44 0 01-.785.128c-.244 0-.484-.039-.721-.118s-.502-.259-.794-.539l-3.659-3.284-3.824-3.433v7.173h-3.432v-10.13c0-.401.058-.748.174-1.04s.268-.529.457-.711a1.7 1.7 0 01.657-.401c.249-.086.507-.128.775-.128.231 0 .465.039.703.118.237.079.508.259.812.538l3.678 3.301 3.805 3.415v-7.172h3.45v10.111zm14.949-6.935h-4.363v9.034h-3.778v-9.034h-5.731l2.445-3.176h13.872l-2.445 3.176zm15.349 9.034H190.01v-12.21h14.146l-2.445 3.176H193.808v1.46h9.674l-2.172 2.774H193.808v1.66h10.385l-2.429 3.14zm15.989 0l-2.72-3.23H209.23v3.23h-3.779v-6.242H216.075c.584 0 1.076-.121 1.478-.364.401-.244.603-.578.603-1.004 0-.476-.182-.831-.548-1.067-.365-.238-.875-.356-1.532-.356H205.452l2.465-3.176h7.849c.694 0 1.411.063 2.154.191a6.578 6.578 0 012.025.685c.607.328 1.11.772 1.506 1.332s.593 1.278.593 2.154c0 .475-.073.924-.219 1.351-.146.425-.356.809-.63 1.149s-.608.63-1.004.868a4.146 4.146 0 01-1.341.501c.207.158.438.359.692.603.256.243.597.578 1.022 1.004l2.245 2.372h-5.056zm25.316 0h-13.744l2.28-3.14h4.209c.395 0 .739.013 1.031.037-.17-.219-.368-.495-.593-.83a49.544 49.544 0 00-.648-.94l-2.19-3.23-.045.064-5.687 8.039h-4.472l7.83-11.042c.256-.354.578-.669.968-.949.362-.261.817-.4 1.36-.418l.118-.001c.571 0 1.05.13 1.433.392s.709.587.977.977l7.174 10.382.455.66h-.456zm3.585-4.864c.177.358.427.665.749.921s.703.453 1.141.594c.438.14.913.209 1.424.209h8.56l-2.428 3.14H249.968c-1.059 0-2.038-.158-2.938-.474-.901-.317-1.677-.751-2.327-1.305a6.074 6.074 0 01-1.633-2.19 5.577 5.577 0 01-.457-2.255 5.374 5.374 0 01.557-2.438c.371-.736.883-1.369 1.533-1.898s1.426-.938 2.327-1.223c.9-.286 1.88-.429 2.938-.429h8.56l-2.428 3.176H249.968c-.511 0-.986.073-1.424.219s-.815.35-1.132.611a2.902 2.902 0 00-.748.94 2.646 2.646 0 00-.273 1.204c0 .441.088.839.263 1.198zm25.909-4.17h-4.362v9.034h-3.778v-9.034h-5.731l2.445-3.176h13.872l-2.446 3.176zm7.429 9.034h-3.778v-12.21h3.778v12.21zM293.9 87.24a4.55 4.55 0 01-.986.949c-.366.264-.819.403-1.359.419l-.101.001c-.571 0-1.049-.131-1.432-.392a3.74 3.74 0 01-.977-.978l-7.648-11.042h4.637l5.493 8.104.027-.039 5.704-8.065h4.453L293.9 87.24zm20.917 1.168H303.062v-12.21h14.146l-2.445 3.176H306.86v1.46h9.674l-2.172 2.774H306.86v1.66h10.386l-2.429 3.14z"/><g fill-rule="evenodd" clip-rule="evenodd" fill="#004674"><path d="M324.741 104.171h41.313v1.089h-41.313zM106.496 104.171h46.611v1.089h-46.611zM316.655 107.276v-7.108h1.318l2.199 4.03.586 1.246v-5.276h1.173v7.108h-1.246l-2.199-4.03-.585-1.246v5.276h-1.246zm-4.103.073v-1.026c.292 0 .512-.072.731-.22.221-.146.44-.293.587-.513s.293-.513.366-.807a4.4 4.4 0 00.146-1.099c0-.806-.146-1.393-.513-1.905-.366-.439-.806-.659-1.318-.659v-1.101c.951 0 1.685.293 2.271.953.587.659.881 1.539.881 2.712s-.294 2.052-.881 2.712c-.586.66-1.319.953-2.27.953zm0-7.329v1.101c-.514 0-1.026.22-1.32.659-.366.44-.513 1.1-.513 1.905 0 .439.073.806.146 1.099.074.294.22.587.366.807.147.22.367.366.587.513.22.147.439.22.733.22v1.026c-.953 0-1.687-.293-2.272-.952-.587-.66-.879-1.613-.879-2.712 0-1.173.292-2.053.879-2.712.586-.66 1.32-.954 2.273-.954zm-11.03 7.183v-1.222l.402 1.222h-.402zm0-6.01h1.647v6.083h1.319v-6.083h2.052v-1.099h-5.019v1.099h.001zm5.679 6.083v-7.108h1.246v7.108h-1.246zm-5.679-7.182v1.099h-.403v-1.099h.403zm0 5.887l-1.943-5.887h-.696v1.305c.107.277.202.565.257.894.147.439.22.807.367 1.173l.293.879h-.917v.953h1.137l.587 1.904.916.001v-1.222zm-2.639-5.887v1.305a6.674 6.674 0 00-.109-.278c-.073.439-.22.806-.293 1.172-.073.367-.22.807-.293 1.173l-.22.879h.915v.953h-1.282l-.586 1.904h-.586v-1.998l1.686-5.109h.768v-.001zm-2.454 2.205l.66-2.132h-.66v2.132zm0-2.132v2.132l-1.539 4.977h-1.539l-2.198-7.108h1.319l1.026 3.591c.146.44.22.806.292 1.173.074.366.22.732.293 1.172h.074c.146-.439.22-.806.293-1.172.073-.367.22-.732.293-1.173l1.025-3.591h.661v-.001zm0 5.037l-.66 1.998h.66v-1.998zm-8.501 2.145v-1.026c.293 0 .513-.072.732-.22.221-.146.44-.293.586-.513a2.69 2.69 0 00.367-.807 4.4 4.4 0 00.146-1.099c0-.806-.146-1.393-.514-1.905-.365-.513-.806-.659-1.318-.659v-1.101c.952 0 1.686.293 2.271.953.587.659.879 1.539.879 2.712s-.292 2.052-.879 2.712c-.585.66-1.318.953-2.27.953zm0-7.329v1.101c-.586 0-1.026.22-1.319.659-.366.44-.514 1.1-.514 1.905 0 .439.074.806.147 1.099.073.294.22.587.366.807.147.22.367.366.587.513.22.147.439.22.732.22v1.026c-.952 0-1.686-.293-2.272-.952-.586-.66-.879-1.613-.879-2.712 0-1.173.293-2.053.879-2.712.587-.66 1.321-.954 2.273-.954zm-25.283 7.329v-1.026c.294 0 .514-.072.733-.22.22-.146.439-.293.586-.513.147-.22.293-.513.367-.807.072-.293.146-.659.146-1.099 0-.806-.146-1.393-.514-1.905-.366-.439-.806-.659-1.319-.659v-1.101c.953 0 1.687.293 2.272.953.586.659.879 1.539.879 2.712s-.293 2.052-.879 2.712c-.585.66-1.392.953-2.271.953zm16.049-.073v-7.108h1.319l2.198 4.03.586 1.246v-5.276h1.173v7.108h-1.319l-2.198-4.03-.587-1.246v5.276h-1.172zm-6.156 0v-7.108h1.319l2.198 4.03.587 1.246v-5.276h1.173v7.108h-1.32l-2.198-4.03-.586-1.246v5.276h-1.173zm-2.198 0v-7.108h1.245v7.108h-1.245zm-7.695-7.256v1.101c-.586 0-1.025.22-1.319.659-.365.44-.513 1.1-.513 1.905 0 .439.073.806.147 1.099.072.294.22.587.365.807.146.22.366.366.587.513.22.147.439.22.732.22v1.026c-.953 0-1.685-.293-2.271-.952-.586-.66-.88-1.613-.88-2.712 0-1.173.294-2.053.88-2.712.587-.66 1.319-.954 2.272-.954zm-28.618 5.079v-1.497c.855-.07 1.282-.507 1.282-1.31 0-.439-.146-.732-.365-.952a2.545 2.545 0 00-.917-.281v-.891c.75.014 1.307.162 1.796.513.513.292.806.879.806 1.685 0 .586-.146 1.025-.439 1.393-.294.366-.659.586-1.173.732l1.612 2.785h-1.393l-1.209-2.177zm21.436 2.177v-6.083h-2.052v-1.099h5.423v1.099h-2.052v6.083h-1.319zm-10.992-1.832c.22.22.513.439.879.587.293.146.659.22.953.22.806 0 1.245-.293 1.245-.953 0-.146 0-.293-.072-.366-.074-.073-.147-.221-.22-.293-.074-.074-.221-.147-.367-.22l-.439-.22-.952-.44c-.367-.147-.661-.367-1.027-.659-.293-.294-.439-.733-.439-1.246 0-.586.22-1.026.659-1.393a2.617 2.617 0 011.687-.586c.879 0 1.611.293 2.198.879l-.659.807c-.514-.439-1.026-.587-1.539-.587-.733 0-1.1.293-1.1.807 0 .146 0 .292.073.366.073.073.147.22.22.293.073.073.22.146.367.22.146.073.292.146.439.146l.952.366c.44.22.733.439 1.026.733.293.293.44.732.44 1.245 0 .587-.221 1.101-.66 1.466-.439.44-1.099.586-1.905.586-1.025 0-1.905-.365-2.564-1.025l.805-.733zm-6.889 1.832v-7.108h1.319l2.198 4.031.587 1.245v-5.276h1.172v7.108h-1.319l-2.198-4.03-.586-1.246v5.276h-1.173zm-3.555-7.108v.891a2.593 2.593 0 00-.256-.013l-1.026.001v2.563h1.026c.09 0 .174-.003.256-.009v1.497l-.256-.461h-1.026v2.638h-1.246v-7.108h2.419l.109.001zm-28.837 7.181v-1.026c.293 0 .514-.072.733-.22.22-.146.439-.292.586-.512.147-.221.293-.514.367-.807a4.51 4.51 0 00.146-1.1c0-.806-.146-1.393-.513-1.905-.366-.513-.806-.659-1.319-.659v-1.101c.953 0 1.686.293 2.271.953.586.659.88 1.539.88 2.712s-.294 2.052-.88 2.712c-.585.66-1.317.953-2.271.953zm20.007-7.255h1.245v4.104c0 .365 0 .732.074.953.073.292.146.512.293.659.146.146.293.292.439.365.146.074.366.074.586.074.44 0 .807-.147 1.026-.439.293-.294.44-.88.44-1.612v-4.104h1.244v4.03c0 1.173-.22 2.052-.732 2.492-.513.513-1.172.732-1.979.732-.806 0-1.466-.22-1.979-.732-.514-.514-.733-1.319-.733-2.492v-4.03h.076zm-4.104 7.182v-6.083h-2.051v-1.099h5.422v1.099h-2.051v6.083h-1.32zm-11.798 0v-7.108h1.318l2.198 4.031.588 1.245v-5.276h1.171v7.108h-1.319l-2.198-4.03-.586-1.246v5.276h-1.172zm-4.105-7.256v1.101c-.586 0-1.025.22-1.319.659-.366.44-.513 1.1-.513 1.905 0 .439.073.806.146 1.1.074.293.22.587.366.807.147.22.366.365.587.512.221.147.44.22.732.22v1.026c-.953 0-1.685-.293-2.272-.952-.586-.66-.879-1.613-.879-2.712 0-1.173.293-2.053.879-2.712.589-.66 1.32-.954 2.273-.954zm-11.029 7.183v-1.222l.403 1.222h-.403zm0-6.01h1.649v6.083h1.318v-6.083h2.053v-1.099h-5.021v1.099h.001zm5.68 6.083v-7.108h1.246v7.108h-1.246zm-5.68-7.182v1.099h-.403v-1.099h.403zm0 5.887l-1.941-5.887h-.77v1.118c.133.336.256.677.256 1.08.147.439.22.807.367 1.173l.292.879h-.915v.953h1.209l.587 1.905h.915v-1.221zm-2.711-5.887v1.118l-.037-.092c-.073.439-.22.806-.293 1.172-.073.367-.22.807-.293 1.173l-.293.879h.916v.953h-1.21l-.587 1.904-1.318.001 2.419-7.108h.696zm-21.472 5.203v-.953h.916l-.293-.879c-.146-.366-.22-.733-.367-1.173-.067-.401-.133-.741-.256-1.076v-1.122h.696l2.346 7.108h-1.32l-.586-1.905h-1.136zm12.274 1.979v-7.108h1.319l2.199 4.031.586 1.245v-5.276h1.173v7.108h-1.319l-2.199-4.03-.586-1.246v5.276h-1.173zm-2.198 0v-7.108h1.246v7.108h-1.246zm-6.522-3.591c0-1.173.293-2.052.953-2.712.66-.659 1.466-1.025 2.418-1.025.513 0 .879.073 1.246.292.367.221.66.367.879.66l-.733.807c-.146-.146-.366-.294-.586-.44-.22-.146-.513-.146-.806-.146-.292 0-.586.072-.879.146-.293.146-.514.294-.66.514-.22.22-.366.513-.44.806a4.446 4.446 0 00-.146 1.099c0 .806.146 1.466.513 1.906.367.439.879.659 1.612.659.44 0 .806-.073 1.026-.293v-2.492l1.172.001v3.151c-.22.22-.586.439-.953.586-.44.146-.879.22-1.319.22-.953 0-1.759-.293-2.346-.952-.658-.661-.951-1.614-.951-2.787zm-3.554-3.591v1.122l-.037-.096c-.073.439-.22.806-.293 1.172-.074.367-.22.807-.293 1.173l-.293.879h.916v.953h-1.283l-.586 1.904-1.319.001 2.418-7.108h.77zm-10.297 7.182v-7.108h1.393l1.246 3.518.439 1.319.073-.001.439-1.318 1.246-3.518h1.393v7.108h-1.173V102l-.513 1.319-1.246 3.225-.586-.001-1.246-3.224-.44-1.319v5.202l-1.026.001v.073h.001zm-2.198 0v-7.108h1.246v7.108h-1.246z"/></g><path fill-rule="evenodd" clip-rule="evenodd" fill="#004674" d="M262.412 67.52h103.642V26.166H262.412v2.185h101.385v36.914H262.412v2.255zm-112.888 0h112.888v-2.256H161.028V28.351h101.384v-2.185H149.524v7.281h6.479v28.467h-6.479v5.606zm-22.971 0h22.971v-5.606h-.801V41.237h-5.68l4.296-7.791h2.185v-7.281h-22.971v7.281h4.624c1.748 0 3.276.364 4.514.801a8.992 8.992 0 013.058 1.82c.801.728 1.384 1.748 1.748 2.767.364 1.092.583 2.33.583 3.64 0 1.238-.146 2.33-.51 3.35-.364 1.019-.874 1.82-1.602 2.548s-1.602 1.311-2.694 1.748c-1.092.364-2.402.655-3.858.655h-5.861v3.859h14.671l-4.586 7.28h-10.084v5.606h-.003zm0-22.352v-3.932h5.206c.801 0 1.383.073 1.82.364.364.292.583.729.583 1.456 0 .729-.146 1.311-.583 1.602-.364.291-1.02.509-1.82.509h-5.206zm-20.276-19.002V67.52h20.276v-5.606h-14.67v-9.246c0-2.621.801-4.441 2.33-5.679 1.456-1.311 3.713-1.82 6.553-1.82h5.788v-3.932h-13.505l4.586-7.791h8.919v-7.281h-20.277v.001zm20.276 24.609v3.859h-7.39v-2.039c0-.728.072-1.165.51-1.457.364-.291.947-.364 1.748-.364h5.132z"/><path fill-rule="evenodd" clip-rule="evenodd" fill="#004674" d="M355.106 53.735l-4.563 5.902h-22.1V36.681h26.595l-4.599 5.97H335.58v2.745h18.188l-4.083 5.217H335.58v3.122zM196.802 36.681l-.105.137v.228l5.728 19.813c.32 1.075.841 1.869 1.562 2.385s1.526.771 2.419.771c.938 0 1.722-.223 2.351-.668.63-.446 1.149-1.035 1.562-1.768l3.671-6.52c.504-.892.938-1.67 1.305-2.333.366-.664.692-1.264.979-1.802.285-.538.537-1.024.754-1.458.218-.435.418-.858.602-1.27l.635 1.27c.217.435.475.921.771 1.458.298.538.63 1.144.995 1.818.366.675.801 1.458 1.305 2.351l3.671 6.486c.436.755.967 1.35 1.597 1.784.628.435 1.4.651 2.315.651a4.06 4.06 0 002.419-.771c.722-.516 1.241-1.31 1.562-2.385l5.938-20.177H231.9l-2.161 7.996a613.031 613.031 0 00-.91 3.431 51.213 51.213 0 00-.668 2.882c-.185-.389-.372-.789-.566-1.2a45.941 45.941 0 00-.67-1.356 181.036 181.036 0 00-1.99-3.757l-3.055-5.799c-.297-.572-.6-1.024-.908-1.355a3.933 3.933 0 00-.961-.772 3.142 3.142 0 00-1.046-.36 7.724 7.724 0 00-1.201-.086c-.412 0-.801.029-1.168.086a3.178 3.178 0 00-1.047.36c-.33.183-.646.44-.943.772-.297.331-.595.783-.892 1.355l-3.089 5.765c-.801 1.487-1.446 2.716-1.938 3.688s-.92 1.858-1.287 2.659c-.183-.938-.395-1.899-.635-2.882s-.543-2.127-.909-3.431l-2.162-7.996h-6.997.105zM318.188 36.681l-10.775 15.236-10.329-15.236h-8.716l2.919 4.215 11.46 16.545a6.981 6.981 0 001.835 1.836c.72.493 1.618.737 2.693.737 1.099 0 2.014-.263 2.746-.789a8.608 8.608 0 001.853-1.784l14.688-20.76h-8.374zM291.287 53.735h-14.855V36.681h-7.103v22.956h20.279l1.679-2.155 2.919-3.747zM267.55 53.735l-4.566 5.902h-22.097V36.681h26.592l-4.597 5.97h-14.859v2.745h18.188l-4.084 5.217h-14.104v3.122zM196.696 36.817l-4.493 5.834h-8.201v16.986h-7.104V42.651h-10.774l4.598-5.97h25.974-.105l.105.364z"/></svg>